<svg xmlns="http://www.w3.org/2000/svg" viewBox="0 0 64 64" fill="none">
  <!-- Rounded square background -->
  <rect width="64" height="64" rx="14" fill="#059669"/>
  <!-- Tooth shape (white) -->
  <path
    d="M32 10
       C26 10 20 14 18 20
       C16 26 17 31 18 34
       C19 38 20 48 22 52
       C23 55 25 55 26.5 52
       C28 49 28 44 32 44
       C36 44 36 49 37.5 52
       C39 55 41 55 42 52
       C44 48 45 38 46 34
       C47 31 48 26 46 20
       C44 14 38 10 32 10Z"
    fill="white"
    opacity="0.95"
  />
  <!-- Tooth root split hint (subtle) -->
  <line x1="32" y1="42" x2="32" y2="52" stroke="#059669" stroke-width="2.5" stroke-linecap="round" opacity="0.35"/>
</svg>
